<?xml version="1.0" encoding="UTF-8" ?>
<!DOCTYPE svg PUBLIC "-//W3C//DTD SVG 1.1//EN" "https://www.w3.org/Graphics/SVG/1.1/DTD/svg11.dtd">
<svg width="512pt" height="512pt" viewBox="0 0 512 512" version="1.1" xmlns="https://www.w3.org/2000/svg">
<path fill="#f5f5f5" stroke="#f5f5f5" stroke-width="0.09375" opacity="1.00" d=" M 235.4 2.2 C 248.3 1.9 261.2 2.1 274.1 2.1 C 299.0 4.2 323.9 9.1 347.4 18.0 C 371.6 27.1 394.1 40.4 414.2 56.7 C 450.8 86.3 480.4 125.4 496.2 170.1 C 503.6 191.6 508.1 214.1 509.9 236.8 C 510.0 247.5 509.9 258.3 509.9 269.0 C 510.1 281.1 507.9 293.0 506.0 304.9 C 501.0 331.1 492.4 356.7 479.0 379.7 C 461.5 410.6 437.4 437.6 409.4 459.3 C 390.3 474.0 369.1 486.1 346.5 494.6 C 333.8 499.3 320.6 502.8 307.3 505.6 C 293.6 507.9 279.9 510.4 266.0 509.9 C 252.5 509.7 238.9 510.7 225.5 508.8 C 199.0 505.5 172.7 498.8 148.5 487.4 C 102.6 465.5 63.8 429.7 37.2 386.6 C 18.9 357.0 7.9 323.3 3.7 288.8 C 0.9 272.0 2.5 254.9 2.1 238.0 C 4.1 213.0 9.1 188.1 18.0 164.6 C 27.2 140.4 40.5 117.9 56.8 97.8 C 78.1 71.7 103.9 49.1 133.4 32.6 C 164.5 14.9 199.9 5.5 235.4 2.2 M 241.2 12.2 C 225.6 13.6 209.8 15.4 194.6 19.4 C 161.4 27.4 130.4 43.5 104.0 65.0 C 76.0 88.0 52.0 116.3 36.0 149.0 C 21.2 178.4 14.1 211.1 12.1 243.9 C 12.1 252.3 12.0 260.7 12.1 269.1 C 13.7 291.8 17.3 314.6 24.8 336.1 C 34.1 363.7 49.0 389.2 67.7 411.4 C 88.6 436.1 113.7 457.5 142.3 472.7 C 161.9 483.3 183.2 490.7 205.0 495.2 C 221.8 498.2 238.8 500.6 256.0 499.9 C 273.2 500.6 290.3 498.2 307.3 495.2 C 316.9 493.0 326.5 490.8 335.8 487.5 C 372.2 475.3 405.1 453.3 431.6 425.6 C 454.9 401.9 473.6 373.4 485.2 342.2 C 493.8 319.3 498.2 295.1 499.8 270.8 C 500.0 264.2 499.9 257.6 499.9 251.0 C 500.3 237.9 498.4 224.9 496.4 212.0 C 489.0 165.9 466.4 122.7 434.0 89.1 C 411.8 65.4 385.2 45.6 355.4 32.4 C 328.0 19.9 298.0 13.9 268.1 12.1 C 259.1 12.1 250.2 11.9 241.2 12.2 Z" />
<path fill="#2c2c2c" stroke="#2c2c2c" stroke-width="0.09375" opacity="1.00" d=" M 241.2 12.2 C 250.2 11.9 259.1 12.1 268.1 12.1 C 298.0 13.9 328.0 19.9 355.4 32.4 C 385.2 45.6 411.8 65.4 434.0 89.1 C 466.4 122.7 489.0 165.9 496.4 212.0 C 498.4 224.9 500.3 237.9 499.9 251.0 C 499.9 257.6 500.0 264.2 499.8 270.8 C 498.2 295.1 493.8 319.3 485.2 342.2 C 473.6 373.4 454.9 401.9 431.6 425.6 C 405.1 453.3 372.2 475.3 335.8 487.5 C 326.5 490.8 316.9 493.0 307.3 495.2 C 290.3 498.2 273.2 500.6 256.0 499.9 C 238.8 500.6 221.8 498.2 205.0 495.2 C 183.2 490.7 161.9 483.3 142.3 472.7 C 113.7 457.5 88.6 436.1 67.7 411.4 C 49.0 389.2 34.1 363.7 24.8 336.1 C 17.3 314.6 13.7 291.8 12.1 269.1 C 12.0 260.7 12.1 252.3 12.1 243.9 C 14.1 211.1 21.2 178.4 36.0 149.0 C 52.0 116.3 76.0 88.0 104.0 65.0 C 130.4 43.5 161.4 27.4 194.6 19.4 C 209.8 15.4 225.6 13.6 241.2 12.2 M 127.5 91.7 C 127.5 178.3 127.5 264.9 127.5 351.5 C 143.8 351.5 160.1 351.5 176.3 351.5 C 176.3 285.0 176.4 218.5 176.3 152.0 C 176.4 150.5 176.5 149.0 176.6 147.5 C 177.2 150.1 177.7 152.8 178.4 155.4 C 194.8 220.8 211.2 286.2 227.7 351.5 C 244.5 351.5 261.4 351.5 278.2 351.5 C 287.8 313.6 297.3 275.7 306.9 237.9 C 314.3 207.7 322.3 177.7 329.4 147.5 C 330.0 153.3 329.6 159.1 329.7 165.0 C 329.7 227.1 329.7 289.3 329.7 351.5 C 346.0 351.5 362.2 351.5 378.5 351.5 C 378.4 264.9 378.5 178.3 378.5 91.7 C 352.3 91.8 326.1 91.7 299.9 91.7 C 284.1 150.8 268.9 209.9 253.1 268.9 C 237.6 209.8 221.7 150.8 206.1 91.7 C 179.9 91.7 153.7 91.8 127.5 91.7 M 126.5 371.5 C 126.5 387.7 126.5 404.0 126.5 420.3 C 129.6 420.3 132.6 420.3 135.6 420.3 C 135.7 407.6 135.6 395.0 135.8 382.4 C 138.9 395.0 142.1 407.6 145.2 420.3 C 148.4 420.3 151.5 420.3 154.6 420.3 C 157.9 407.6 161.0 394.9 164.2 382.2 C 164.4 394.9 164.3 407.6 164.4 420.3 C 167.4 420.3 170.5 420.3 173.5 420.3 C 173.5 404.0 173.5 387.7 173.5 371.5 C 168.6 371.5 163.6 371.5 158.7 371.5 C 155.8 382.5 152.9 393.6 150.0 404.6 C 147.0 393.6 144.2 382.5 141.2 371.5 C 136.3 371.5 131.4 371.5 126.5 371.5 M 196.5 371.8 C 191.2 373.4 186.7 377.4 184.2 382.3 C 181.0 388.2 180.8 395.2 181.6 401.8 C 182.7 409.8 188.2 417.4 196.1 419.7 C 204.7 422.3 215.2 421.3 221.7 414.7 C 227.1 409.4 228.8 401.4 228.4 394.0 C 228.1 387.2 225.6 380.1 220.2 375.8 C 213.7 370.4 204.4 369.8 196.5 371.8 M 348.4 371.5 C 341.7 373.1 336.3 378.4 333.9 384.7 C 331.7 390.9 331.6 397.8 333.0 404.2 C 334.6 411.9 340.8 418.4 348.5 420.2 C 355.9 421.8 364.4 421.3 370.5 416.5 C 375.3 412.8 378.2 406.9 378.8 400.9 C 379.9 392.5 378.6 382.9 372.2 376.9 C 366.0 370.7 356.5 369.7 348.4 371.5 M 235.9 371.5 C 235.9 387.8 235.9 404.0 235.9 420.3 C 239.2 420.3 242.5 420.3 245.8 420.3 C 245.8 413.4 245.8 406.6 245.8 399.8 C 249.2 399.9 253.2 399.6 255.6 402.4 C 260.2 408.0 263.8 414.4 268.0 420.3 C 271.9 420.3 275.8 420.3 279.8 420.3 C 274.5 412.9 271.2 403.6 263.0 398.7 C 266.0 398.1 269.0 397.4 271.4 395.3 C 277.6 390.1 277.1 379.1 270.6 374.3 C 267.3 371.9 263.0 371.7 259.0 371.5 C 251.3 371.4 243.6 371.5 235.9 371.5 M 285.1 371.5 C 285.2 387.8 285.1 404.0 285.1 420.2 C 288.4 420.3 291.7 420.3 294.9 420.3 C 295.0 413.4 294.7 406.6 295.1 399.8 C 298.6 399.8 302.8 399.7 305.1 402.9 C 309.5 408.4 313.0 414.5 317.1 420.3 C 321.0 420.3 325.0 420.3 328.9 420.3 C 323.6 412.9 320.2 403.6 312.2 398.7 C 314.6 398.2 317.2 397.7 319.2 396.3 C 326.7 391.6 326.7 379.3 319.7 374.2 C 316.0 371.7 311.3 371.7 307.0 371.5 C 299.7 371.5 292.4 371.5 285.1 371.5 Z" />
<path fill="#efefef" stroke="#efefef" stroke-width="0.09375" opacity="1.00" d=" M 127.5 91.7 C 153.7 91.8 179.9 91.7 206.1 91.7 C 221.7 150.8 237.6 209.8 253.1 268.9 C 268.9 209.9 284.1 150.8 299.9 91.7 C 326.1 91.7 352.3 91.8 378.5 91.7 C 378.5 178.3 378.4 264.9 378.5 351.5 C 362.2 351.5 346.0 351.5 329.7 351.5 C 329.7 289.3 329.7 227.1 329.7 165.0 C 329.6 159.1 330.0 153.3 329.4 147.5 C 322.3 177.7 314.3 207.7 306.9 237.9 C 297.3 275.7 287.8 313.6 278.2 351.5 C 261.4 351.5 244.5 351.5 227.7 351.5 C 211.2 286.2 194.8 220.8 178.4 155.4 C 177.7 152.8 177.2 150.1 176.6 147.5 C 176.5 149.0 176.4 150.5 176.3 152.0 C 176.4 218.5 176.3 285.0 176.3 351.5 C 160.1 351.5 143.8 351.5 127.5 351.5 C 127.5 264.9 127.5 178.3 127.5 91.7 Z" />
<path fill="#b7b7b7" stroke="#b7b7b7" stroke-width="0.09375" opacity="1.00" d=" M 126.5 371.5 C 131.4 371.5 136.3 371.5 141.2 371.5 C 144.2 382.5 147.0 393.6 150.0 404.6 C 152.9 393.6 155.8 382.5 158.7 371.5 C 163.6 371.5 168.6 371.5 173.5 371.5 C 173.5 387.7 173.5 404.0 173.5 420.3 C 170.5 420.3 167.4 420.3 164.4 420.3 C 164.3 407.6 164.4 394.9 164.2 382.2 C 161.0 394.9 157.9 407.6 154.6 420.3 C 151.5 420.3 148.4 420.3 145.2 420.3 C 142.1 407.6 138.9 395.0 135.8 382.4 C 135.6 395.0 135.7 407.6 135.6 420.3 C 132.6 420.3 129.6 420.3 126.5 420.3 C 126.5 404.0 126.5 387.7 126.5 371.5 Z" />
<path fill="#b7b7b7" stroke="#b7b7b7" stroke-width="0.09375" opacity="1.00" d=" M 196.5 371.8 C 204.4 369.8 213.7 370.4 220.2 375.8 C 225.6 380.1 228.1 387.2 228.4 394.0 C 228.8 401.4 227.1 409.4 221.7 414.7 C 215.2 421.3 204.7 422.3 196.1 419.7 C 188.2 417.4 182.7 409.8 181.6 401.8 C 180.8 395.2 181.0 388.2 184.2 382.3 C 186.7 377.4 191.2 373.4 196.5 371.8 M 201.4 379.6 C 196.1 380.8 192.4 385.7 191.7 391.0 C 191.1 396.7 191.1 403.3 195.0 408.0 C 199.6 413.9 209.6 414.1 214.4 408.4 C 217.6 404.7 218.4 399.7 218.3 395.0 C 218.1 390.5 217.1 385.5 213.6 382.4 C 210.4 379.3 205.6 378.7 201.4 379.6 Z" />
<path fill="#b7b7b7" stroke="#b7b7b7" stroke-width="0.09375" opacity="1.00" d=" M 348.4 371.5 C 356.5 369.7 366.0 370.7 372.2 376.9 C 378.6 382.9 379.9 392.5 378.8 400.9 C 378.2 406.9 375.3 412.8 370.5 416.5 C 364.4 421.3 355.9 421.8 348.5 420.2 C 340.8 418.4 334.6 411.9 333.0 404.2 C 331.6 397.8 331.7 390.9 333.9 384.7 C 336.3 378.4 341.7 373.1 348.4 371.5 M 351.5 379.8 C 346.7 381.1 343.4 385.6 342.7 390.4 C 341.7 396.3 341.8 403.2 345.8 408.1 C 350.5 413.9 360.6 414.1 365.3 408.3 C 368.3 404.9 368.8 400.3 369.1 396.0 C 368.9 391.4 368.4 386.4 365.0 383.0 C 361.6 379.3 356.1 378.5 351.5 379.8 Z" />
<path fill="#b7b7b7" stroke="#b7b7b7" stroke-width="0.09375" opacity="1.00" d=" M 235.9 371.5 C 243.6 371.5 251.3 371.4 259.0 371.5 C 263.0 371.7 267.3 371.9 270.6 374.3 C 277.1 379.1 277.6 390.1 271.4 395.3 C 269.0 397.4 266.0 398.1 263.0 398.7 C 271.2 403.6 274.5 412.9 279.8 420.3 C 275.8 420.3 271.9 420.3 268.0 420.3 C 263.8 414.4 260.2 408.0 255.6 402.4 C 253.2 399.6 249.2 399.9 245.8 399.8 C 245.8 406.6 245.8 413.4 245.8 420.3 C 242.5 420.3 239.2 420.3 235.9 420.3 C 235.9 404.0 235.9 387.8 235.9 371.5 M 245.8 379.9 C 245.8 383.9 245.8 387.9 245.8 391.9 C 251.1 392.1 256.4 392.1 261.7 391.5 C 266.8 390.2 267.0 381.8 261.9 380.4 C 256.6 379.3 251.2 380.1 245.8 379.9 Z" />
<path fill="#b7b7b7" stroke="#b7b7b7" stroke-width="0.09375" opacity="1.00" d=" M 285.1 371.5 C 292.4 371.5 299.7 371.5 307.0 371.5 C 311.3 371.7 316.0 371.7 319.7 374.2 C 326.7 379.3 326.7 391.6 319.2 396.3 C 317.2 397.7 314.6 398.2 312.2 398.7 C 320.2 403.6 323.6 412.9 328.9 420.3 C 325.0 420.3 321.0 420.3 317.1 420.3 C 313.0 414.5 309.5 408.4 305.1 402.9 C 302.8 399.7 298.6 399.8 295.1 399.8 C 294.7 406.6 295.0 413.4 294.9 420.3 C 291.7 420.3 288.4 420.3 285.1 420.2 C 285.1 404.0 285.2 387.8 285.1 371.5 M 295.1 379.8 C 294.8 383.8 294.9 387.9 294.9 391.9 C 300.2 392.1 305.5 392.1 310.7 391.6 C 315.9 390.3 316.1 381.6 310.8 380.3 C 305.6 379.3 300.3 380.1 295.1 379.8 Z" />
<path fill="#2c2c2c" stroke="#2c2c2c" stroke-width="0.09375" opacity="1.00" d=" M 201.4 379.6 C 205.6 378.7 210.4 379.3 213.6 382.4 C 217.1 385.5 218.1 390.5 218.3 395.0 C 218.4 399.7 217.6 404.7 214.4 408.4 C 209.6 414.1 199.6 413.9 195.0 408.0 C 191.1 403.3 191.1 396.7 191.7 391.0 C 192.4 385.7 196.1 380.8 201.4 379.6 Z" />
<path fill="#2c2c2c" stroke="#2c2c2c" stroke-width="0.09375" opacity="1.00" d=" M 351.5 379.8 C 356.1 378.5 361.6 379.3 365.0 383.0 C 368.4 386.4 368.9 391.4 369.1 396.0 C 368.8 400.3 368.3 404.9 365.3 408.3 C 360.6 414.1 350.5 413.9 345.8 408.1 C 341.8 403.2 341.7 396.3 342.7 390.4 C 343.4 385.6 346.7 381.1 351.5 379.8 Z" />
<path fill="#2c2c2c" stroke="#2c2c2c" stroke-width="0.09375" opacity="1.00" d=" M 245.8 379.9 C 251.2 380.1 256.6 379.3 261.9 380.4 C 267.0 381.8 266.8 390.2 261.7 391.5 C 256.4 392.1 251.1 392.1 245.8 391.9 C 245.8 387.9 245.8 383.9 245.8 379.9 Z" />
<path fill="#2c2c2c" stroke="#2c2c2c" stroke-width="0.09375" opacity="1.00" d=" M 295.1 379.8 C 300.3 380.1 305.6 379.3 310.8 380.3 C 316.1 381.6 315.9 390.3 310.7 391.6 C 305.5 392.1 300.2 392.1 294.9 391.9 C 294.9 387.9 294.8 383.8 295.1 379.8 Z" />
</svg>
