<?xml version="1.0" encoding="UTF-8" ?>
<!DOCTYPE svg PUBLIC "-//W3C//DTD SVG 1.1//EN" "http://www.w3.org/Graphics/SVG/1.1/DTD/svg11.dtd">
<svg width="150pt" height="150pt" viewBox="0 0 150 150" version="1.1" xmlns="http://www.w3.org/2000/svg">
<path fill="#ffffff" stroke="#ffffff" stroke-width="0.09375" opacity="1.00" d=" M 15.4 28.5 C 30.2 27.3 45.1 28.2 60.0 28.0 C 83.3 28.3 106.7 27.5 130.0 28.2 C 134.5 27.4 139.4 29.9 140.6 34.4 C 142.5 39.2 139.6 45.3 134.6 46.5 C 119.8 47.7 104.9 46.8 90.0 47.0 C 66.7 46.7 43.3 47.5 20.0 46.8 C 15.5 47.6 10.6 45.1 9.4 40.6 C 7.5 35.8 10.4 29.7 15.4 28.5 Z" />
<path fill="#ffffff" stroke="#ffffff" stroke-width="0.09375" opacity="1.00" d=" M 16.4 65.6 C 49.6 64.0 82.8 65.6 116.0 64.9 C 123.6 65.6 133.2 62.5 139.1 68.9 C 143.9 74.4 140.2 84.0 132.8 84.6 C 96.2 85.6 59.6 84.7 23.0 85.0 C 15.9 86.3 7.0 81.2 9.0 73.0 C 9.6 69.3 12.7 66.2 16.4 65.6 Z" />
<path fill="#ffffff" stroke="#ffffff" stroke-width="0.09375" opacity="1.00" d=" M 15.4 103.5 C 30.2 102.3 45.1 103.2 60.0 103.0 C 83.3 103.3 106.7 102.5 130.0 103.2 C 134.5 102.4 139.4 104.9 140.6 109.4 C 142.5 114.2 139.6 120.3 134.6 121.5 C 119.8 122.7 104.9 121.8 90.0 122.0 C 66.7 121.7 43.3 122.5 20.0 121.8 C 15.5 122.6 10.6 120.1 9.4 115.6 C 7.5 110.8 10.4 104.7 15.4 103.5 Z" />
</svg>
